<?xml version="1.0" encoding="UTF-8" standalone="no"?>
<!-- Created with Inkscape (http://www.inkscape.org/) -->

<svg
   width="240mm"
   height="120mm"
   viewBox="0 0 240 120"
   version="1.1"
   id="svg8"
   inkscape:version="1.3.2 (091e20ef0f, 2023-11-25)"
   sodipodi:docname="lerte.svg"
   xmlns:inkscape="http://www.inkscape.org/namespaces/inkscape"
   xmlns:sodipodi="http://sodipodi.sourceforge.net/DTD/sodipodi-0.dtd"
   xmlns="http://www.w3.org/2000/svg"
   xmlns:svg="http://www.w3.org/2000/svg"
   xmlns:rdf="http://www.w3.org/1999/02/22-rdf-syntax-ns#"
   xmlns:cc="http://creativecommons.org/ns#"
   xmlns:dc="http://purl.org/dc/elements/1.1/">
  <defs
     id="defs2">
    <inkscape:path-effect
       effect="bspline"
       id="path-effect1"
       is_visible="true"
       lpeversion="1.3"
       weight="33.333333"
       steps="2"
       helper_size="0"
       apply_no_weight="true"
       apply_with_weight="true"
       only_selected="false"
       uniform="false" />
  </defs>
  <sodipodi:namedview
     id="base"
     pagecolor="#ffffff"
     bordercolor="#666666"
     borderopacity="1.0"
     inkscape:pageopacity="0.0"
     inkscape:pageshadow="2"
     inkscape:zoom="0.99437388"
     inkscape:cx="284.27627"
     inkscape:cy="182.72055"
     inkscape:document-units="mm"
     inkscape:current-layer="layer1"
     showgrid="false"
     showborder="true"
     width="200mm"
     showguides="true"
     inkscape:guide-bbox="true"
     inkscape:window-width="709"
     inkscape:window-height="844"
     inkscape:window-x="0"
     inkscape:window-y="0"
     inkscape:window-maximized="1"
     inkscape:showpageshadow="2"
     inkscape:pagecheckerboard="0"
     inkscape:deskcolor="#d1d1d1">
    <inkscape:grid
       type="xygrid"
       id="grid815"
       units="mm"
       spacingx="10"
       spacingy="10"
       empspacing="4"
       dotted="false"
       originx="0"
       originy="0"
       visible="false" />
  </sodipodi:namedview>
  <metadata
     id="metadata5">
    <rdf:RDF>
      <cc:Work
         rdf:about="">
        <dc:format>image/svg+xml</dc:format>
        <dc:type
           rdf:resource="http://purl.org/dc/dcmitype/StillImage" />
        <dc:title />
      </cc:Work>
    </rdf:RDF>
  </metadata>
  <g
     inkscape:label="Layer 1"
     inkscape:groupmode="layer"
     id="layer1"
     transform="translate(0,-177)">
    <path
       style="fill:none;stroke:#000000;stroke-width:0.4;stroke-linejoin:bevel"
       d="m 65.169933,243.77369 c -0.603875,-1.19112 -1.207754,-2.38225 -1.574135,-3.78541 -0.366381,-1.40316 -0.495263,-3.01835 0.999359,-4.5982 1.494623,-1.57985 4.612749,-3.12436 7.01371,-3.75284 2.400962,-0.62848 4.084753,-0.34092 5.932244,0.11346 1.847492,0.45438 3.858684,1.07559 6.125217,-0.57598 2.266533,-1.65157 4.788406,-5.57591 6.099926,-8.13503 1.311519,-2.55912 1.412684,-3.75301 2.574187,-4.5594 1.161503,-0.80638 3.383345,-1.22525 6.947888,-0.56265 3.564541,0.66261 8.471781,2.40668 11.186461,4.54797 2.71467,2.14129 3.23679,4.67979 4.25589,6.45695 1.01911,1.77716 2.53522,2.79298 3.80776,4.26924 1.27254,1.47626 2.30153,3.41297 4.14122,3.55796 1.8397,0.14499 4.49011,-1.50173 5.73165,-2.31054 1.24153,-0.80881 1.07419,-0.77971 0.51293,-0.72739 -0.56127,0.0523 -1.51646,0.12784 -2.47147,0.39946 -0.95501,0.27163 -1.90985,0.73934 -2.52551,0.89404 -0.61566,0.15469 -0.89213,-0.004 -1.65018,-0.32515 -0.75805,-0.32151 -1.99768,-0.80621 -3.23731,-1.29091"
       id="path1"
       inkscape:path-effect="#path-effect1"
       inkscape:original-d="m 65.169933,243.77369 c -0.603877,-1.19112 -1.207754,-2.38225 -1.811634,-3.57338 -0.128881,-1.61519 -0.257765,-3.23038 -0.386646,-4.84557 3.118128,-1.54451 6.236255,-3.08902 9.354386,-4.63354 1.68379,0.28756 3.367579,0.57513 5.051369,0.86268 2.011193,0.62121 4.022386,1.24241 6.03358,1.86361 2.521873,-3.92434 5.043746,-7.84868 7.56562,-11.77302 0.101166,-1.1939 0.202332,-2.38779 0.303495,-3.58169 2.221841,-0.41887 4.443683,-0.83774 6.665521,-1.25661 4.907246,1.74408 9.814486,3.48815 14.721726,5.23222 0.52211,2.53851 1.04423,5.07701 1.56634,7.61551 1.5161,1.01582 3.03221,2.03164 4.54831,3.04746 1.02898,1.9367 2.05797,3.87341 3.08695,5.81011 2.65041,-1.64672 5.30082,-3.29344 7.95123,-4.94016 -0.16734,0.0291 -0.33468,0.0582 -0.50202,0.0873 -0.95519,0.0755 -1.91038,0.15106 -2.86556,0.22659 -0.95484,0.46772 -1.90968,0.93544 -2.86452,1.40315 -0.27648,-0.15833 -0.55295,-0.31666 -0.82943,-0.47499 -1.23962,-0.4847 -2.47925,-0.96939 -3.71888,-1.45409" />
  </g>
</svg>
