<svg version="1.1" xmlns="http://www.w3.org/2000/svg" viewBox="0 0 519.971227234642 251.0948763516256" width="1039.942454469284" height="502.1897527032512">
  <!-- svg-source:excalidraw -->
  
  <defs>
    <style class="style-fonts">
      @font-face {
        font-family: "Virgil";
        src: url("https://excalidraw.com/Virgil.woff2");
      }
      @font-face {
        font-family: "Cascadia";
        src: url("https://excalidraw.com/Cascadia.woff2");
      }
      @font-face {
        font-family: "Assistant";
        src: url("https://excalidraw.com/Assistant-Regular.woff2");
      }
    </style>
    
  </defs>
  <g stroke-linecap="round"><g transform="translate(30.715806549827562 208) rotate(0 207 0)"><path d="M0.24 0.41 C69.14 0.39, 344.86 -1.11, 413.78 -1.07 M-1.1 -0.42 C67.6 -0.25, 343.72 0.06, 412.71 -0.1" stroke="#1e1e1e" stroke-width="2" fill="none"></path></g></g><mask></mask><g stroke-linecap="round"><g transform="translate(31.715806549827562 209) rotate(0 69 -84.5)"><path d="M-0.9 0.78 C21.92 -27.53, 114.33 -141.07, 137.35 -169.39 M0.82 0.14 C24.01 -28.04, 116.57 -140.05, 139.72 -168.06" stroke="#1e1e1e" stroke-width="2" fill="none"></path></g></g><mask></mask><g stroke-linecap="round"><g transform="translate(171.77122647170256 40) rotate(0 136.5 84.5)"><path d="M-0.51 -0.57 C44.84 27.52, 226.67 141.14, 272.37 169.44 M1.42 1.74 C47.15 29.39, 229.44 139.39, 274.76 167.55" stroke="#1e1e1e" stroke-width="2" fill="none"></path></g></g><mask></mask><g stroke-linecap="round"><g transform="translate(169.77122647170256 39.606753999999995) rotate(0 -1 85.196623)"><path d="M-0.07 -0.6 C-0.45 27.6, -2.64 140.88, -2.84 169.58 M-1.56 1.7 C-1.51 30, -0.56 142.66, -0.57 170.68" stroke="#1e1e1e" stroke-width="2" fill="none"></path></g></g><mask></mask><g transform="translate(79.75163280551544 209.2157110841727) rotate(0 22.133333206176758 12.5)"><text x="0" y="17.52" font-family="Virgil, Segoe UI Emoji" font-size="20px" fill="#1e1e1e" text-anchor="start" style="white-space: pre;" direction="ltr" dominant-baseline="alphabetic">0.5m</text></g><g transform="translate(278.77122647170256 210.97387511175066) rotate(0 18.66666603088379 12.5)"><text x="0" y="17.52" font-family="Virgil, Segoe UI Emoji" font-size="20px" fill="#1e1e1e" text-anchor="start" style="white-space: pre;" direction="ltr" dominant-baseline="alphabetic">1.0m</text></g><g stroke-linecap="round"><g transform="translate(169.76109421555714 41.28942689003665) rotate(0 -71.36367861152507 0)"><path d="M0.31 0.73 C-23.41 0.72, -120.3 -1.01, -143.99 -0.95 M-2.97 -1.34 C-27.02 -0.87, -123.55 2.58, -146.91 2.17" stroke="#1e1e1e" stroke-width="2" fill="none"></path></g><g transform="translate(169.76109421555714 41.28942689003665) rotate(0 -71.36367861152507 0)"><path d="M-123.01 -7.59 C-129.84 -3.87, -133.98 -3.7, -146.2 4.13 M-123.63 -7.35 C-132.08 -3.41, -140.14 -0.44, -146.24 3" stroke="#1e1e1e" stroke-width="2" fill="none"></path></g><g transform="translate(169.76109421555714 41.28942689003665) rotate(0 -71.36367861152507 0)"><path d="M-122.78 9.51 C-129.61 9.13, -133.8 5.2, -146.2 4.13 M-123.4 9.75 C-131.98 7.48, -140.12 4.24, -146.24 3" stroke="#1e1e1e" stroke-width="2" fill="none"></path></g></g><mask></mask><g transform="translate(87.77122647170256 10) rotate(0 29.799999237060547 12.5)"><text x="0" y="17.52" font-family="Virgil, Segoe UI Emoji" font-size="20px" fill="#1e1e1e" text-anchor="start" style="white-space: pre;" direction="ltr" dominant-baseline="alphabetic">1000N</text></g><g stroke-linecap="round"><g transform="translate(445.77122647170256 86) rotate(0 0.5 57)"><path d="M0.66 -0.83 C1.05 17.89, 2.02 94.39, 1.96 113.38 M-0.45 1.34 C-0.1 20.74, 1.58 95.82, 1.52 114.6" stroke="#1e1e1e" stroke-width="2" fill="none"></path></g><g transform="translate(445.77122647170256 86) rotate(0 0.5 57)"><path d="M-7.3 91.2 C-6.13 99.02, -3.41 102.52, 1.52 114.6 M-7.3 91.2 C-6.12 96.49, -3.87 102.75, 1.52 114.6" stroke="#1e1e1e" stroke-width="2" fill="none"></path></g><g transform="translate(445.77122647170256 86) rotate(0 0.5 57)"><path d="M9.8 91.01 C6.4 98.97, 4.54 102.53, 1.52 114.6 M9.8 91.01 C7.07 96.42, 5.4 102.73, 1.52 114.6" stroke="#1e1e1e" stroke-width="2" fill="none"></path></g></g><mask></mask><g transform="translate(451.77122647170256 123) rotate(0 29.100000381469727 12.5)"><text x="0" y="17.52" font-family="Virgil, Segoe UI Emoji" font-size="20px" fill="#1e1e1e" text-anchor="start" style="white-space: pre;" direction="ltr" dominant-baseline="alphabetic">1500N</text></g><g transform="translate(171.4368314717026 117.881279) rotate(0 22.133333206176758 12.5)"><text x="0" y="17.52" font-family="Virgil, Segoe UI Emoji" font-size="20px" fill="#1e1e1e" text-anchor="start" style="white-space: pre;" direction="ltr" dominant-baseline="alphabetic">0.5m</text></g><g transform="translate(10 198.20264864004804) rotate(0 6.566666603088379 12.5)"><text x="0" y="17.52" font-family="Virgil, Segoe UI Emoji" font-size="20px" fill="#1e1e1e" text-anchor="start" style="white-space: pre;" direction="ltr" dominant-baseline="alphabetic">A</text></g><g transform="translate(189.58164027577914 210.24183597242205) rotate(0 7.266666889190674 12.5)"><text x="0" y="17.52" font-family="Virgil, Segoe UI Emoji" font-size="20px" fill="#1e1e1e" text-anchor="start" style="white-space: pre;" direction="ltr" dominant-baseline="alphabetic">B</text></g><g transform="translate(168.77122647170256 13) rotate(0 7.800000190734863 12.5)"><text x="0" y="17.52" font-family="Virgil, Segoe UI Emoji" font-size="20px" fill="#1e1e1e" text-anchor="start" style="white-space: pre;" direction="ltr" dominant-baseline="alphabetic">D</text></g><g transform="translate(448.77122647170256 208) rotate(0 6.433333396911621 12.5)"><text x="0" y="17.52" font-family="Virgil, Segoe UI Emoji" font-size="20px" fill="#1e1e1e" text-anchor="start" style="white-space: pre;" direction="ltr" dominant-baseline="alphabetic">C</text></g><g stroke-linecap="round"><g transform="translate(32.24616000955666 207.29516898394564) rotate(0 -0.3758164027577777 14.6568397075539)"><path d="M2.75 1.77 C0.27 5.79, -18.94 20.88, -16.68 25.16 C-14.43 29.44, 13.52 31.55, 16.26 27.46 C19.01 23.37, 2.32 5.22, -0.23 0.64 M0.8 0.26 C-1.84 4.51, -20.85 22.87, -18.6 27.76 C-16.34 32.64, 11.17 33.59, 14.31 29.56 C17.44 25.54, 2.94 8.38, 0.22 3.59" stroke="#1e1e1e" stroke-width="2" fill="none"></path></g></g><mask></mask><g stroke-linecap="round"><g transform="translate(167.89535323583175 207.6612225514242) rotate(0 -0.3758164027577777 14.6568397075539)"><path d="M1.97 1.91 C-0.39 6.11, -19.07 21.92, -16.21 26.19 C-13.34 30.46, 15.99 31.66, 19.15 27.55 C22.3 23.43, 5.47 6.07, 2.71 1.5 M-0.4 0.49 C-2.85 4.99, -21.05 24.48, -17.86 29.35 C-14.66 34.22, 16.43 35.21, 18.76 29.7 C21.09 24.19, -0.84 1.05, -3.87 -3.72" stroke="#1e1e1e" stroke-width="2" fill="none"></path></g></g><mask></mask></svg>