<?xml version="1.0" encoding="UTF-8" standalone="no"?>
<svg
   version="1.1"
   viewBox="0 0 469.76609828747763 255.61312511925183"
   width="939.5321965749553"
   height="511.22625023850367"
   id="svg44"
   sodipodi:docname="Q2aDiagram.svg"
   inkscape:export-filename="figures/Q2aDiagram.pdf"
   inkscape:export-xdpi="96"
   inkscape:export-ydpi="96"
   inkscape:version="1.3.2 (091e20ef0f, 2023-11-25)"
   xmlns:inkscape="http://www.inkscape.org/namespaces/inkscape"
   xmlns:sodipodi="http://sodipodi.sourceforge.net/DTD/sodipodi-0.dtd"
   xmlns="http://www.w3.org/2000/svg"
   xmlns:svg="http://www.w3.org/2000/svg">
  <sodipodi:namedview
     id="namedview44"
     pagecolor="#ffffff"
     bordercolor="#000000"
     borderopacity="0.25"
     inkscape:showpageshadow="2"
     inkscape:pageopacity="0.0"
     inkscape:pagecheckerboard="0"
     inkscape:deskcolor="#d1d1d1"
     showgrid="false"
     inkscape:zoom="0.25118883"
     inkscape:cx="467.77558"
     inkscape:cy="256.77893"
     inkscape:window-width="1420"
     inkscape:window-height="841"
     inkscape:window-x="0"
     inkscape:window-y="0"
     inkscape:window-maximized="1"
     inkscape:current-layer="svg44" />
  <!-- svg-source:excalidraw -->
  <defs
     id="defs1">
    <style
       class="style-fonts"
       id="style1">
      @font-face {
        font-family: &quot;Virgil&quot;;
        src: url(&quot;https://excalidraw.com/Virgil.woff2&quot;);
      }
      @font-face {
        font-family: &quot;Cascadia&quot;;
        src: url(&quot;https://excalidraw.com/Cascadia.woff2&quot;);
      }
      @font-face {
        font-family: &quot;Assistant&quot;;
        src: url(&quot;https://excalidraw.com/Assistant-Regular.woff2&quot;);
      }
    </style>
  </defs>
  <g
     stroke-linecap="round"
     id="g2">
    <g
       transform="translate(68.91703941937334 71.81834040540096) rotate(0 191.6663654064742 0)"
       id="g1">
      <path
         d="M-0.59 -0.05 C63.52 -0.25, 319.03 0.83, 383.37 0.58 M4.29 -2.54 C68.14 -3.82, 317.73 -4.66, 381.16 -4.12"
         stroke="#1e1e1e"
         stroke-width="2"
         fill="none"
         id="path1" />
    </g>
  </g>
  <mask
     id="mask2" />
  <g
     stroke-linecap="round"
     transform="translate(57.64254733663955 65.80527796127629) rotate(0 9.019593666187006 4.885613235851309)"
     id="g3">
    <path
       d="M9.43 0.79 C11.31 0.81, 13.81 1.32, 15.4 2.11 C16.98 2.91, 18.72 4.6, 18.94 5.57 C19.17 6.55, 18 7.24, 16.74 7.96 C15.49 8.68, 13.49 9.58, 11.4 9.87 C9.31 10.17, 6.09 10.29, 4.2 9.73 C2.31 9.18, 0.87 7.65, 0.08 6.54 C-0.7 5.44, -1.1 4.23, -0.5 3.11 C0.09 2, 1.87 0.47, 3.63 -0.15 C5.4 -0.77, 8.88 -0.76, 10.06 -0.58 C11.24 -0.41, 10.66 0.76, 10.73 0.89 M8.06 0.75 C9.86 0.32, 10.63 -0.95, 12.25 -0.68 C13.87 -0.41, 16.84 1.17, 17.78 2.36 C18.71 3.54, 18.25 5.26, 17.89 6.44 C17.52 7.61, 17.03 8.84, 15.59 9.4 C14.15 9.97, 11.38 10.08, 9.27 9.82 C7.16 9.56, 4.58 8.79, 2.94 7.83 C1.31 6.87, -0.27 4.93, -0.54 4.06 C-0.81 3.18, -0.04 3.26, 1.31 2.58 C2.65 1.89, 6.58 0.44, 7.53 -0.06 C8.47 -0.56, 7.21 -0.4, 6.99 -0.43"
       stroke="#1e1e1e"
       stroke-width="2"
       fill="none"
       id="path2" />
  </g>
  <g
     stroke-linecap="round"
     transform="translate(167.38093694191508 64.6778287530029) rotate(0 9.019593666187006 4.885613235851309)"
     id="g4">
    <path
       d="M5.86 0.29 C7.55 -0.31, 9.93 -0.5, 11.62 -0.29 C13.31 -0.09, 15 0.59, 16 1.51 C17.01 2.44, 17.77 4.27, 17.63 5.24 C17.48 6.22, 16.59 6.55, 15.13 7.37 C13.66 8.19, 10.6 9.81, 8.85 10.19 C7.1 10.56, 6.12 10.37, 4.61 9.62 C3.11 8.86, 0.5 6.7, -0.18 5.67 C-0.87 4.64, -0.64 4.31, 0.5 3.43 C1.63 2.56, 5.65 1, 6.61 0.41 C7.57 -0.18, 6.32 -0.24, 6.26 -0.11 M11.78 1.86 C13.15 2.42, 15.14 3.08, 16.24 3.72 C17.33 4.37, 18.85 5.1, 18.34 5.73 C17.84 6.36, 14.73 6.92, 13.21 7.52 C11.7 8.12, 11.11 9.14, 9.26 9.32 C7.4 9.51, 3.55 9.54, 2.08 8.61 C0.61 7.68, 0.32 4.9, 0.42 3.74 C0.53 2.59, 1.83 2.33, 2.7 1.68 C3.57 1.03, 4.01 0.22, 5.65 -0.16 C7.28 -0.55, 11.44 -0.65, 12.49 -0.63 C13.53 -0.61, 11.86 -0.52, 11.93 -0.04"
       stroke="#1e1e1e"
       stroke-width="2"
       fill="none"
       id="path3" />
  </g>
  <g
     stroke-linecap="round"
     transform="translate(319.2107636560632 63.926195947487344) rotate(0 9.019593666187006 4.885613235851309)"
     id="g5">
    <path
       d="M9.99 0.53 C11.84 0.34, 15.14 0.35, 16.31 1.16 C17.48 1.96, 16.93 4.31, 17.02 5.36 C17.11 6.4, 17.88 6.62, 16.85 7.42 C15.83 8.23, 12.77 9.78, 10.85 10.18 C8.93 10.57, 6.95 10.26, 5.34 9.82 C3.74 9.38, 2.13 8.57, 1.22 7.52 C0.32 6.47, -0.68 4.48, -0.09 3.51 C0.5 2.55, 2.93 2.43, 4.76 1.72 C6.6 1.01, 9.92 -0.38, 10.94 -0.74 C11.95 -1.1, 11.11 -0.7, 10.84 -0.43 M8.22 1.38 C9.9 1.47, 12.69 1.4, 14.47 1.68 C16.24 1.97, 18.51 2.42, 18.86 3.09 C19.22 3.77, 17.29 4.65, 16.59 5.75 C15.89 6.85, 16.32 9.21, 14.67 9.68 C13.01 10.15, 8.77 8.72, 6.66 8.57 C4.55 8.42, 3.21 9.46, 2 8.77 C0.79 8.09, -0.42 5.64, -0.6 4.47 C-0.78 3.3, -0.39 2.67, 0.92 1.77 C2.24 0.87, 6.34 -0.85, 7.3 -0.95 C8.25 -1.05, 6.74 0.96, 6.67 1.17"
       stroke="#1e1e1e"
       stroke-width="2"
       fill="none"
       id="path4" />
  </g>
  <g
     stroke-linecap="round"
     transform="translate(441.7269109551036 63.17456314197173) rotate(0 9.019593666187006 4.885613235851309)"
     id="g6">
    <path
       d="M10.33 1.09 C12.04 1.28, 15.6 1.03, 16.79 1.82 C17.97 2.62, 17.66 4.7, 17.44 5.86 C17.23 7.03, 16.72 8.07, 15.51 8.81 C14.31 9.55, 12.21 10.3, 10.21 10.29 C8.21 10.28, 5 9.31, 3.51 8.76 C2.03 8.21, 1.65 8.11, 1.29 7 C0.93 5.88, 0.73 3.25, 1.35 2.05 C1.96 0.85, 3.14 0.01, 4.97 -0.19 C6.8 -0.39, 10.72 0.45, 12.32 0.85 C13.91 1.25, 14.53 2.15, 14.53 2.22 M14.15 0.18 C15.62 0.24, 15.6 0.8, 16.43 1.88 C17.26 2.96, 19.6 5.68, 19.14 6.67 C18.68 7.66, 15.48 7.15, 13.66 7.82 C11.85 8.48, 10.21 10.59, 8.27 10.63 C6.32 10.68, 3.6 8.94, 1.99 8.07 C0.39 7.21, -1.24 6.6, -1.37 5.43 C-1.51 4.26, 0.02 1.76, 1.19 1.06 C2.35 0.35, 3.84 1.32, 5.61 1.18 C7.39 1.05, 10.82 0.5, 11.85 0.27 C12.88 0.03, 11.74 -0.42, 11.79 -0.22"
       stroke="#1e1e1e"
       stroke-width="2"
       fill="none"
       id="path5" />
  </g>
  <g
     stroke-linecap="round"
     id="g8">
    <g
       transform="translate(454.5046686488685 66.55691076679187) rotate(0 -195.75105960975495 72.04581884140356)"
       id="g7">
      <path
         d="M2.69 -0.69 C-63.14 23.52, -328.74 122.68, -394.24 146.7 M0.7 -3.54 C-64.37 19.82, -323.95 118.15, -389.33 143.1"
         stroke="#1e1e1e"
         stroke-width="2"
         fill="none"
         id="path6" />
    </g>
  </g>
  <mask
     id="mask8" />
  <g
     stroke-linecap="round"
     id="g10">
    <g
       transform="translate(176.40053060810197 70.31507479436979) rotate(0 0 48.10449955299747)"
       id="g9">
      <path
         d="M-1.41 -2.35 C-1.43 13.85, 0.39 81.48, 1.04 97.68 M3.01 2.54 C2.61 17.88, -0.47 77.69, -0.63 93.46"
         stroke="#1e1e1e"
         stroke-width="2"
         fill="none"
         id="path8" />
    </g>
  </g>
  <mask
     id="mask10" />
  <g
     stroke-linecap="round"
     id="g12">
    <g
       transform="translate(328.98199012776576 70.31507479436979) rotate(0 -5.684341886080802e-14 22.173167762709767)"
       id="g11">
      <path
         d="M-0.08 -0.61 C-0.06 6.85, 0.38 37.9, 0.46 45.2 M-1.58 1.68 C-1.7 8.77, -0.49 36.49, -0.25 43.52"
         stroke="#1e1e1e"
         stroke-width="2"
         fill="none"
         id="path10" />
    </g>
  </g>
  <mask
     id="mask12" />
  <g
     stroke-linecap="round"
     id="g14">
    <g
       transform="translate(66.66214100282656 69.56344198885421) rotate(0 55.62082760815332 49.231948761270814)"
       id="g13">
      <path
         d="M1.38 -2.74 C20.14 12.95, 91.97 79.3, 110.61 95.74 M-1.31 1.94 C17.19 17.73, 89.06 81.94, 108.03 97.89"
         stroke="#1e1e1e"
         stroke-width="2"
         fill="none"
         id="path12" />
    </g>
  </g>
  <mask
     id="mask14" />
  <g
     stroke-linecap="round"
     id="g16">
    <g
       transform="translate(176.40053060810197 71.06670759988538) rotate(0 75.16328055155856 21.797351359951975)"
       id="g15">
      <path
         d="M-1.1 1.99 C23.71 9.07, 125.92 37.51, 151.21 44.32 M3.5 0.6 C27.8 6.62, 125.2 32.21, 149.46 39.7"
         stroke="#1e1e1e"
         stroke-width="2"
         fill="none"
         id="path14" />
    </g>
  </g>
  <mask
     id="mask16" />
  <g
     transform="translate(54.823081018700066 37.05953963658527) rotate(0 6.566666603088379 12.5)"
     id="g17">
    <text
       x="0"
       y="17.52"
       font-family="Virgil, Segoe UI Emoji"
       font-size="20px"
       fill="#1e1e1e"
       text-anchor="start"
       style="white-space: pre;"
       direction="ltr"
       dominant-baseline="alphabetic"
       id="text16">A</text>
  </g>
  <g
     transform="translate(164.37440571985252 37.99486415719966) rotate(0 7.266666889190674 12.5)"
     id="g18">
    <text
       x="0"
       y="17.52"
       font-family="Virgil, Segoe UI Emoji"
       font-size="20px"
       fill="#1e1e1e"
       text-anchor="start"
       style="white-space: pre;"
       direction="ltr"
       dominant-baseline="alphabetic"
       id="text17">B</text>
  </g>
  <g
     transform="translate(322.21729487812553 41.00139537926199) rotate(0 6.433333396911621 12.5)"
     id="g19">
    <text
       x="0"
       y="17.52"
       font-family="Virgil, Segoe UI Emoji"
       font-size="20px"
       fill="#1e1e1e"
       text-anchor="start"
       style="white-space: pre;"
       direction="ltr"
       dominant-baseline="alphabetic"
       id="text18">C</text>
  </g>
  <g
     transform="translate(442.4785437606192 39.498129768230825) rotate(0 7.800000190734863 12.5)"
     id="g20">
    <text
       x="0"
       y="17.52"
       font-family="Virgil, Segoe UI Emoji"
       font-size="20px"
       fill="#1e1e1e"
       text-anchor="start"
       style="white-space: pre;"
       direction="ltr"
       dominant-baseline="alphabetic"
       id="text19">D</text>
  </g>
  <g
     transform="translate(328.98199012776576 122.17773837494519) rotate(0 6.733333110809326 12.5)"
     id="g21">
    <text
       x="0"
       y="17.52"
       font-family="Virgil, Segoe UI Emoji"
       font-size="20px"
       fill="#1e1e1e"
       text-anchor="start"
       style="white-space: pre;"
       direction="ltr"
       dominant-baseline="alphabetic"
       id="text20">E</text>
  </g>
  <g
     transform="translate(175.64889780258642 168.77897231691145) rotate(0 7.883333206176758 12.5)"
     id="g22">
    <text
       x="0"
       y="17.52"
       font-family="Virgil, Segoe UI Emoji"
       font-size="20px"
       fill="#1e1e1e"
       text-anchor="start"
       style="white-space: pre;"
       direction="ltr"
       dominant-baseline="alphabetic"
       id="text21">G</text>
  </g>
  <g
     transform="translate(179.4070618301643 107.89671507014907) rotate(0 22.366666793823242 12.5)"
     id="g23">
    <text
       x="0"
       y="17.52"
       font-family="Virgil, Segoe UI Emoji"
       font-size="20px"
       fill="#1e1e1e"
       text-anchor="start"
       style="white-space: pre;"
       direction="ltr"
       dominant-baseline="alphabetic"
       id="text22">2.5m</text>
  </g>
  <g
     transform="translate(331.9885213498281 75.57650443297891) rotate(0 9.050000190734863 12.5)"
     id="g24">
    <text
       x="0"
       y="17.52"
       font-family="Virgil, Segoe UI Emoji"
       font-size="20px"
       fill="#1e1e1e"
       text-anchor="start"
       style="white-space: pre;"
       direction="ltr"
       dominant-baseline="alphabetic"
       id="text23">1m</text>
  </g>
  <g
     stroke-linecap="round"
     id="g26">
    <g
       transform="translate(83.01774419809482 84.78990938133703) rotate(0 11.168537958111472 -6.861600890725825)"
       id="g25">
      <path
         d="M-0.73 0.51 C3.14 0.14, 21.72 0.6, 22.97 -1.65 C24.22 -3.91, 9.17 -11.07, 6.77 -13.04 M1.08 -0.27 C4.87 -0.57, 21.01 1.75, 22.36 -0.71 C23.71 -3.16, 11.35 -13.1, 9.17 -15.03"
         stroke="#1e1e1e"
         stroke-width="2"
         fill="none"
         id="path24" />
    </g>
  </g>
  <mask
     id="mask26" />
  <g
     stroke-linecap="round"
     id="g28">
    <g
       transform="translate(391.79902099368263 87.48336423123223) rotate(169.77752140202506 -5.121780225281384 -10.78738073423547)"
       id="g27">
      <path
         d="M-0.76 -1.24 C0.41 -3.53, 6.85 -9.23, 5.1 -12.7 C3.34 -16.17, -8.37 -20.62, -11.3 -22.06 M4.02 4.25 C5.17 1, 6.6 -13.32, 3.93 -17.24 C1.27 -21.15, -9.44 -18.99, -11.99 -19.22"
         stroke="#1e1e1e"
         stroke-width="2"
         fill="none"
         id="path26" />
    </g>
  </g>
  <mask
     id="mask28" />
  <g
     transform="translate(112.85271873566677 76.64753738433018) rotate(0 23.28333282470703 12.5)"
     id="g29">
    <text
       x="0"
       y="17.52"
       font-family="Virgil, Segoe UI Emoji"
       font-size="20px"
       fill="#1e1e1e"
       text-anchor="start"
       style="white-space: pre;"
       direction="ltr"
       dominant-baseline="alphabetic"
       id="text28">39.8</text>
  </g>
  <g
     stroke-linecap="round"
     id="g31">
    <g
       transform="translate(211.27323883548985 90.79682728816024) rotate(0 2.960093497579436 -15.233173981870209)"
       id="g30">
      <path
         d="M-0.19 -9.48 C1.08 -10.1, 7.1 -12.44, 7.01 -14.21 C6.92 -15.98, 0.47 -18.94, -0.72 -20.1 M-1.55 -10.16 C-0.39 -10.6, 6.23 -11.51, 6.24 -12.93 C6.26 -14.35, -0.5 -17.42, -1.46 -18.68"
         stroke="#1e1e1e"
         stroke-width="2"
         fill="none"
         id="path29" />
    </g>
  </g>
  <mask
     id="mask31" />
  <g
     transform="translate(253.65737518143493 76.21429228757407) rotate(0 11.066666603088379 7.08443629054733)"
     id="g32">
    <text
       x="0"
       y="9.929545904831134"
       font-family="Virgil, Segoe UI Emoji"
       font-size="11.335098064875723px"
       fill="#1e1e1e"
       text-anchor="start"
       style="white-space: pre;"
       direction="ltr"
       dominant-baseline="alphabetic"
       id="text31">18.4</text>
  </g>
  <g
     stroke-linecap="round"
     transform="translate(16.16685464290606 37.22223357951515) rotate(0 10.325674806022988 33.793117546984334)"
     id="g33">
    <path
       d="M5.16 0 C8 -1.17, 11.23 1, 15.49 0 M5.16 0 C9.29 -0.17, 11.41 -0.83, 15.49 0 M15.49 0 C18.21 3.4, 23.77 2.52, 20.65 5.16 M15.49 0 C14.72 -1.86, 17.01 0.29, 20.65 5.16 M20.65 5.16 C17.02 19.04, 18.15 37.19, 20.65 62.42 M20.65 5.16 C19.13 22.24, 20.43 40.63, 20.65 62.42 M20.65 62.42 C17.48 65.2, 17.94 65.87, 15.49 67.59 M20.65 62.42 C20.65 64.78, 22.1 63.32, 15.49 67.59 M15.49 67.59 C12.29 69.12, 7.94 68.21, 5.16 67.59 M15.49 67.59 C13.21 68.19, 9.42 66.93, 5.16 67.59 M5.16 67.59 C0.8 70.23, -1.21 64.26, 0 62.42 M5.16 67.59 C2.04 69.64, -0.99 68.02, 0 62.42 M0 62.42 C1.69 46.46, -2.69 24.28, 0 5.16 M0 62.42 C1.31 49.68, 0.35 38.84, 0 5.16 M0 5.16 C2.45 0.38, 0.62 -0.99, 5.16 0 M0 5.16 C1.67 0.73, 4.05 -3.61, 5.16 0"
       stroke="#1e1e1e"
       stroke-width="2"
       fill="none"
       id="path32" />
  </g>
  <g
     stroke-linecap="round"
     id="g35">
    <g
       transform="translate(36.818204254952036 51.30269922409195) rotate(0 16.89655877349216 19.2433030475883)"
       id="g34">
      <path
         d="M-0.21 1.92 C5.15 5.82, 34.83 15.47, 34.86 21.3 C34.89 27.12, 6.16 33.87, -0.03 36.86 M-3.77 0.49 C1.06 3.77, 32.89 10.71, 33.2 17.15 C33.52 23.58, 4.16 34.9, -1.85 39.09"
         stroke="#1e1e1e"
         stroke-width="2"
         fill="none"
         id="path33" />
    </g>
  </g>
  <mask
     id="mask35" />
  <g
     transform="translate(51.472319504709276 175.9868006630764) rotate(0 5.516666889190674 12.5)"
     id="g36">
    <text
       x="0"
       y="17.52"
       font-family="Virgil, Segoe UI Emoji"
       font-size="20px"
       fill="#1e1e1e"
       text-anchor="start"
       style="white-space: pre;"
       direction="ltr"
       dominant-baseline="alphabetic"
       id="text35">H</text>
  </g>
  <g
     stroke-linecap="round"
     transform="translate(10 178.02689002528314) rotate(0 10.325674806022988 33.79311754698435)"
     id="g37">
    <path
       d="M5.16 0 C6.61 1.83, 10.31 -1.36, 15.49 0 M5.16 0 C7.98 0.37, 12.56 0.34, 15.49 0 M15.49 0 C22.82 -1.23, 17.75 3.78, 20.65 5.16 M15.49 0 C19.17 2.57, 22.43 -1.3, 20.65 5.16 M20.65 5.16 C19.89 24.05, 16.7 43.06, 20.65 62.42 M20.65 5.16 C19.31 16.45, 20.28 29.31, 20.65 62.42 M20.65 62.42 C21.38 66.02, 22.59 64.08, 15.49 67.59 M20.65 62.42 C19.94 62.09, 19.78 65.63, 15.49 67.59 M15.49 67.59 C13.01 69.4, 7.74 67.9, 5.16 67.59 M15.49 67.59 C11.31 67.22, 7.98 68.76, 5.16 67.59 M5.16 67.59 C3.04 68.81, -1.69 63.35, 0 62.42 M5.16 67.59 C-2.14 67.89, -4.52 68.25, 0 62.42 M0 62.42 C0.57 43.04, 0.43 22.58, 0 5.16 M0 62.42 C-2.02 40.54, -1.45 21.71, 0 5.16 M0 5.16 C-2.66 5.49, -0.5 2.22, 5.16 0 M0 5.16 C-0.1 3.24, -1.98 -4.3, 5.16 0"
       stroke="#1e1e1e"
       stroke-width="2"
       fill="none"
       id="path36" />
  </g>
  <g
     stroke-linecap="round"
     id="g39">
    <g
       transform="translate(30.65134961204592 192.10735566985994) rotate(0 16.89655877349216 19.243303047588313)"
       id="g38">
      <path
         d="M2.67 1.3 C7.71 4.83, 32.95 14.04, 32.14 20.29 C31.33 26.54, 3.4 35.59, -2.18 38.8 M0.68 -0.46 C6.47 2.25, 37.18 8.51, 37.65 15.6 C38.11 22.69, 9.99 37.56, 3.47 42.08"
         stroke="#1e1e1e"
         stroke-width="2"
         fill="none"
         id="path37" />
    </g>
  </g>
  <mask
     id="mask39" />
  <g
     stroke-linecap="round"
     transform="translate(44.32778593205967 209.00391444335213) rotate(0 7.509581677107633 2.8160931289153837)"
     id="g40">
    <path
       d="M10.47 -0.24 C11.67 -0.27, 12.68 0.17, 13.43 0.6 C14.18 1.03, 15.06 1.51, 14.95 2.36 C14.85 3.2, 14 5.02, 12.78 5.66 C11.57 6.3, 9.3 6.24, 7.64 6.19 C5.98 6.14, 4.05 5.75, 2.82 5.35 C1.59 4.96, 0.45 4.43, 0.27 3.81 C0.09 3.19, 0.89 2.38, 1.72 1.63 C2.55 0.88, 3.83 -0.39, 5.26 -0.71 C6.68 -1.03, 9.19 -0.39, 10.29 -0.31 C11.39 -0.23, 11.67 -0.28, 11.84 -0.23 M8.36 -1.29 C10.04 -1.35, 13.73 -0.08, 14.8 0.69 C15.87 1.47, 15.36 2.63, 14.78 3.37 C14.19 4.11, 12.4 4.81, 11.28 5.14 C10.15 5.47, 9.57 5.4, 8.01 5.34 C6.46 5.28, 3.15 4.89, 1.95 4.79 C0.74 4.69, 1.13 5.37, 0.79 4.73 C0.45 4.1, -0.49 1.72, -0.07 0.97 C0.35 0.22, 1.54 0.55, 3.31 0.21 C5.08 -0.13, 9.76 -1.33, 10.57 -1.09 C11.38 -0.86, 8.45 1.46, 8.16 1.62"
       stroke="#1e1e1e"
       stroke-width="2"
       fill="none"
       id="path39" />
  </g>
  <g
     transform="translate(112.85271873566677 10) rotate(0 13.149999618530273 12.5)"
     id="g41">
    <text
       x="0"
       y="17.52"
       font-family="Virgil, Segoe UI Emoji"
       font-size="20px"
       fill="#1e1e1e"
       text-anchor="start"
       style="white-space: pre;"
       direction="ltr"
       dominant-baseline="alphabetic"
       id="text40">3m</text>
  </g>
  <g
     transform="translate(240.51560724649647 18.448279386746094) rotate(0 13.149999618530273 12.5)"
     id="g42">
    <text
       x="0"
       y="17.52"
       font-family="Virgil, Segoe UI Emoji"
       font-size="20px"
       fill="#1e1e1e"
       text-anchor="start"
       style="white-space: pre;"
       direction="ltr"
       dominant-baseline="alphabetic"
       id="text41">3m</text>
  </g>
  <g
     transform="translate(376.62677514407216 15.63218625783071) rotate(0 13.449999809265137 12.5)"
     id="g43">
    <text
       x="0"
       y="17.52"
       font-family="Virgil, Segoe UI Emoji"
       font-size="20px"
       fill="#1e1e1e"
       text-anchor="start"
       style="white-space: pre;"
       direction="ltr"
       dominant-baseline="alphabetic"
       id="text42">2m</text>
  </g>
  <g
     transform="translate(349.78533053967345 74.11887087456444) rotate(0 12.583333015441895 7.248860672313583)"
     id="g44">
    <text
       x="0"
       y="10.160003118314712"
       font-family="Virgil, Segoe UI Emoji"
       font-size="11.598177075701726px"
       fill="#1e1e1e"
       text-anchor="start"
       style="white-space: pre;"
       direction="ltr"
       dominant-baseline="alphabetic"
       id="text43">26.7</text>
  </g>
</svg>
