<?xml version="1.0" encoding="UTF-8" standalone="no"?>
<!-- Created with Inkscape (http://www.inkscape.org/) -->

<svg
   width="240mm"
   height="120mm"
   viewBox="0 0 240 120"
   version="1.1"
   id="svg8"
   inkscape:version="1.3.2 (091e20ef0f, 2023-11-25)"
   sodipodi:docname="inet.svg"
   xmlns:inkscape="http://www.inkscape.org/namespaces/inkscape"
   xmlns:sodipodi="http://sodipodi.sourceforge.net/DTD/sodipodi-0.dtd"
   xmlns="http://www.w3.org/2000/svg"
   xmlns:svg="http://www.w3.org/2000/svg"
   xmlns:rdf="http://www.w3.org/1999/02/22-rdf-syntax-ns#"
   xmlns:cc="http://creativecommons.org/ns#"
   xmlns:dc="http://purl.org/dc/elements/1.1/">
  <defs
     id="defs2" />
  <sodipodi:namedview
     id="base"
     pagecolor="#ffffff"
     bordercolor="#666666"
     borderopacity="1.0"
     inkscape:pageopacity="0.0"
     inkscape:pageshadow="2"
     inkscape:zoom="0.99437388"
     inkscape:cx="284.09837"
     inkscape:cy="183.02975"
     inkscape:document-units="mm"
     inkscape:current-layer="layer1"
     showgrid="false"
     showborder="true"
     width="200mm"
     showguides="true"
     inkscape:guide-bbox="true"
     inkscape:window-width="1426"
     inkscape:window-height="844"
     inkscape:window-x="0"
     inkscape:window-y="0"
     inkscape:window-maximized="1"
     inkscape:showpageshadow="2"
     inkscape:pagecheckerboard="0"
     inkscape:deskcolor="#d1d1d1">
    <inkscape:grid
       type="xygrid"
       id="grid815"
       units="mm"
       spacingx="10"
       spacingy="10"
       empspacing="4"
       dotted="false"
       originx="0"
       originy="0"
       visible="false" />
  </sodipodi:namedview>
  <metadata
     id="metadata5">
    <rdf:RDF>
      <cc:Work
         rdf:about="">
        <dc:format>image/svg+xml</dc:format>
        <dc:type
           rdf:resource="http://purl.org/dc/dcmitype/StillImage" />
        <dc:title />
      </cc:Work>
    </rdf:RDF>
  </metadata>
  <g
     inkscape:label="Layer 1"
     inkscape:groupmode="layer"
     id="layer1"
     transform="translate(0,-177)">
    <path
       sodipodi:type="star"
       style="fill:none;stroke:#000000;stroke-width:0.264583"
       id="path1"
       inkscape:flatsided="false"
       sodipodi:sides="6"
       sodipodi:cx="139.93573"
       sodipodi:cy="120.13684"
       sodipodi:r1="41.328312"
       sodipodi:r2="3.2281418"
       sodipodi:arg1="0.63175241"
       sodipodi:arg2="1.1553512"
       inkscape:rounded="1.08"
       inkscape:randomized="0"
       d="m 173.28742,144.54368 c -24.59786,33.61272 6.05991,-38.26383 -32.04882,-21.45329 -38.10873,16.81053 35.64443,42.6293 -5.76397,38.13329 -41.408397,-4.49602 36.16741,-13.88389 2.55469,-38.48175 -33.61272,-24.597859 -19.09584,52.18364 -35.90638,14.0749 -16.810539,-38.108728 30.1075,24.37995 34.60351,-17.02844 4.49601,-41.408403 -54.740274,9.55433 -30.14241,-24.058391 24.59786,-33.612718 -6.05991,38.263831 32.04882,21.453301 38.10873,-16.81054 -35.64443,-42.629307 5.76397,-38.133294 41.4084,4.496014 -36.16741,13.883884 -2.55469,38.481744 33.61272,24.59786 19.09584,-52.183634 35.90638,-14.0749 16.81054,38.10873 -30.1075,-24.379953 -34.60351,17.02845 -4.49601,41.40839 54.74027,-9.55434 30.14241,24.05838 z"
       transform="matrix(0.26458333,0,0,0.26458333,0,177)" />
  </g>
</svg>
