<?xml version="1.0" encoding="UTF-8" standalone="no"?>
<!-- Created with Inkscape (http://www.inkscape.org/) -->

<svg
   width="240mm"
   height="120mm"
   viewBox="0 0 240 120"
   version="1.1"
   id="svg8"
   inkscape:version="1.3.2 (091e20ef0f, 2023-11-25)"
   sodipodi:docname="beans.svg"
   xmlns:inkscape="http://www.inkscape.org/namespaces/inkscape"
   xmlns:sodipodi="http://sodipodi.sourceforge.net/DTD/sodipodi-0.dtd"
   xmlns="http://www.w3.org/2000/svg"
   xmlns:svg="http://www.w3.org/2000/svg"
   xmlns:rdf="http://www.w3.org/1999/02/22-rdf-syntax-ns#"
   xmlns:cc="http://creativecommons.org/ns#"
   xmlns:dc="http://purl.org/dc/elements/1.1/">
  <defs
     id="defs2">
    <inkscape:path-effect
       effect="bspline"
       id="path-effect1"
       is_visible="true"
       lpeversion="1.3"
       weight="33.333333"
       steps="2"
       helper_size="0"
       apply_no_weight="true"
       apply_with_weight="true"
       only_selected="false"
       uniform="false" />
  </defs>
  <sodipodi:namedview
     id="base"
     pagecolor="#ffffff"
     bordercolor="#666666"
     borderopacity="1.0"
     inkscape:pageopacity="0.0"
     inkscape:pageshadow="2"
     inkscape:zoom="0.99437388"
     inkscape:cx="284.27627"
     inkscape:cy="182.72055"
     inkscape:document-units="mm"
     inkscape:current-layer="layer1"
     showgrid="false"
     showborder="true"
     width="200mm"
     showguides="true"
     inkscape:guide-bbox="true"
     inkscape:window-width="1426"
     inkscape:window-height="844"
     inkscape:window-x="0"
     inkscape:window-y="0"
     inkscape:window-maximized="1"
     inkscape:showpageshadow="2"
     inkscape:pagecheckerboard="0"
     inkscape:deskcolor="#d1d1d1">
    <inkscape:grid
       type="xygrid"
       id="grid815"
       units="mm"
       spacingx="10"
       spacingy="10"
       empspacing="4"
       dotted="false"
       originx="0"
       originy="0"
       visible="false" />
  </sodipodi:namedview>
  <metadata
     id="metadata5">
    <rdf:RDF>
      <cc:Work
         rdf:about="">
        <dc:format>image/svg+xml</dc:format>
        <dc:type
           rdf:resource="http://purl.org/dc/dcmitype/StillImage" />
        <dc:title />
      </cc:Work>
    </rdf:RDF>
  </metadata>
  <g
     inkscape:label="Layer 1"
     inkscape:groupmode="layer"
     id="layer1"
     transform="translate(0,-177)">
    <path
       style="fill:none;stroke:#000000;stroke-width:0.4;stroke-linejoin:bevel"
       d="m 36.692062,208.9868 c -0.03499,1.81025 -0.06998,3.6205 -0.05058,4.47798 0.01941,0.85748 0.09319,0.76221 0.371919,0.37487 0.278725,-0.38734 0.762378,-1.06674 1.994039,-2.3554 1.231661,-1.28865 3.211327,-3.18655 8.389327,-5.5934 5.178001,-2.40685 13.554335,-5.32264 20.811952,-4.39206 7.257616,0.93059 13.396517,5.70756 18.708944,9.33118 5.312428,3.62361 9.798375,6.09386 12.916503,9.26933 3.11813,3.17546 4.86844,7.05615 7.81317,9.21926 2.94472,2.16312 7.08387,2.60866 12.64176,0.99954 5.55789,-1.60913 12.53453,-5.27293 17.20982,-8.34342 4.67528,-3.07049 7.04922,-5.54767 8.35503,-6.57561 1.3058,-1.02795 1.54347,-0.60666 2.18649,-0.61047 0.64303,-0.004 1.69142,-0.43272 4.35361,-1.63251 2.66218,-1.19979 6.93818,-3.17044 10.01733,-2.87925 3.07915,0.2912 4.96146,2.84426 7.69363,5.52758 2.73218,2.68332 6.31422,5.49692 8.48322,9.48102 2.169,3.9841 2.92498,9.13872 3.98324,11.88042 1.05826,2.7417 2.4188,3.07049 0.5947,5.9681 -1.82411,2.8976 -6.83286,8.36403 -10.30577,11.15579 -3.4729,2.79177 -5.40995,2.90887 -8.79312,3.15018 -3.38317,0.24131 -8.21246,0.60683 -11.63461,0.3035 -3.42214,-0.30332 -5.43715,-1.27549 -8.19271,-2.16225 -2.75556,-0.88676 -6.25167,-1.68812 -12.03771,-1.78305 -5.78603,-0.0949 -13.86198,0.51657 -20.89925,0.16821 -7.03727,-0.34837 -13.035862,-1.6566 -19.621004,-2.38261 -6.585142,-0.726 -13.756837,-0.86978 -19.474619,-2.75642 -5.717783,-1.88664 -9.981651,-5.51614 -15.260989,-7.14467 -5.279338,-1.62853 -11.574149,-1.25609 -15.417243,-1.53153 -3.843093,-0.27543 -5.234472,-1.19874 -6.608355,-3.1914 -1.373883,-1.99266 -2.730269,-5.05466 -4.049756,-8.08011 -1.319487,-3.02545 -2.602077,-6.01435 -3.884667,-9.00325"
       id="path1"
       inkscape:path-effect="#path-effect1"
       inkscape:original-d="m 36.692062,208.9868 c -0.03499,1.81025 -0.06999,3.6205 -0.104976,5.43075 0.0738,-0.0953 0.147589,-0.19056 0.221387,-0.28583 0.483656,-0.67941 0.967311,-1.35881 1.450967,-2.03822 1.979665,-1.8979 3.959331,-3.7958 5.938996,-5.6937 8.376335,-2.9158 16.752668,-5.8316 25.129003,-8.74739 6.138902,4.77697 12.277804,9.55394 18.416706,14.33092 4.48595,2.47025 8.971897,4.9405 13.457845,7.41075 1.75031,3.88068 3.50062,7.76137 5.25093,11.64205 4.13914,0.44555 8.27829,0.8911 12.41743,1.33664 6.97664,-3.6638 13.95328,-7.3276 20.92992,-10.9914 2.37393,-2.47718 4.74787,-4.95436 7.12181,-7.43154 0.23767,0.42129 0.47534,0.84258 0.71301,1.26388 1.04838,-0.42892 2.09677,-0.85783 3.14515,-1.28675 4.27599,-1.97066 8.55199,-3.94131 12.82798,-5.91197 1.88231,2.55305 3.76462,5.10611 5.64693,7.65916 3.58204,2.81359 7.16408,5.62719 10.74611,8.44078 0.75598,5.15461 1.51195,10.30923 2.26792,15.46384 1.36055,0.32879 2.72109,0.65758 4.08164,0.98637 -5.00876,5.46642 -10.01751,10.93285 -15.02627,16.39927 -1.93705,0.11711 -3.8741,0.23421 -5.81115,0.35132 -4.82929,0.36551 -9.65858,0.73102 -14.48787,1.09654 -2.015,-0.97217 -4.03001,-1.94433 -6.04501,-2.91649 -3.49612,-0.80136 -6.99223,-1.60272 -10.48835,-2.40408 -8.07595,0.6115 -16.1519,1.223 -24.22786,1.8345 -5.99858,-1.30823 -11.997172,-2.61646 -17.995758,-3.92469 -7.171698,-0.14378 -14.343393,-0.28756 -21.515091,-0.43134 -4.263866,-3.6295 -8.527735,-7.259 -12.791604,-10.8885 -6.294807,0.37244 -12.589618,0.74488 -18.884426,1.11732 -1.39138,-0.92331 -2.782758,-1.84662 -4.174135,-2.76993 -1.356387,-3.06201 -2.712773,-6.12401 -4.06916,-9.18601 -1.282588,-2.9889 -2.56518,-5.9778 -3.847769,-8.9667" />
  </g>
</svg>
